<svg width="66" height="66" viewBox="0 0 66 66" fill="none" xmlns="http://www.w3.org/2000/svg">
<path d="M32.9801 15.9333C37.1038 15.9333 40.4467 12.5904 40.4467 8.46667C40.4467 4.34294 37.1038 1 32.9801 1C28.8564 1 25.5134 4.34294 25.5134 8.46667C25.5134 12.5904 28.8564 15.9333 32.9801 15.9333Z" stroke="black" stroke-width="2" stroke-linecap="round" stroke-linejoin="round"/>
<path d="M32.9801 47.9333V60.7333" stroke="black" stroke-width="2" stroke-linecap="round" stroke-linejoin="round"/>
<path d="M56.6999 20.917C55.7584 20.2894 54.6062 20.0615 53.4966 20.2834C52.3871 20.5053 51.4112 21.1588 50.7835 22.1003C50.1075 23.1192 49.1059 23.8787 47.9424 24.2548C46.7789 24.631 45.5223 24.6014 44.3778 24.171C37.0537 21.4204 28.9804 21.4204 21.6564 24.171C20.5093 24.6065 19.2482 24.6387 18.0804 24.2624C16.9127 23.886 15.9077 23.1235 15.2308 22.1003C14.92 21.6333 14.5203 21.2322 14.0545 20.9198C13.5886 20.6073 13.0659 20.3897 12.5159 20.2793C11.4053 20.0563 10.2516 20.2836 9.30862 20.9113C8.36563 21.5389 7.71059 22.5155 7.48762 23.6261C7.26464 24.7367 7.49199 25.8904 8.11964 26.8334C9.84225 29.4339 12.3885 31.3803 15.3498 32.3603C18.3111 33.3404 21.5158 33.2973 24.4496 32.2379V60.7335C24.4496 61.8651 24.8991 62.9503 25.6993 63.7505C26.4994 64.5507 27.5847 65.0002 28.7163 65.0002C29.8479 65.0002 30.9331 64.5507 31.7333 63.7505C32.5334 62.9503 32.9829 61.8651 32.9829 60.7335C32.9829 61.8651 33.4325 62.9503 34.2326 63.7505C35.0328 64.5507 36.118 65.0002 37.2496 65.0002C38.3812 65.0002 39.4664 64.5507 40.2666 63.7505C41.0667 62.9503 41.5163 61.8651 41.5163 60.7335L41.5333 32.2208C43.0604 32.7722 44.6714 33.0551 46.2949 33.0571C48.5902 33.0573 50.8499 32.489 52.872 31.403C54.8941 30.317 56.6158 28.7471 57.8832 26.8334C58.5108 25.8919 58.7387 24.7397 58.5168 23.6301C58.2949 22.5206 57.6413 21.5447 56.6999 20.917V20.917Z" stroke="black" stroke-width="2" stroke-linecap="round" stroke-linejoin="round"/>
<path d="M47.9333 13.8001C47.9333 11.5369 48.8324 9.36639 50.4327 7.76608C52.033 6.16577 54.2035 5.26672 56.4667 5.26672C58.7298 5.26672 60.9003 6.16577 62.5006 7.76608C64.101 9.36639 65 11.5369 65 13.8001H47.9333Z" stroke="black" stroke-width="2" stroke-linecap="round" stroke-linejoin="round"/>
<path d="M56.4667 5.26667V1" stroke="black" stroke-width="2" stroke-linecap="round" stroke-linejoin="round"/>
<path d="M1 13.8001C1 11.5369 1.89904 9.36639 3.49936 7.76608C5.09967 6.16577 7.27015 5.26672 9.53333 5.26672C11.7965 5.26672 13.967 6.16577 15.5673 7.76608C17.1676 9.36639 18.0667 11.5369 18.0667 13.8001H1Z" stroke="black" stroke-width="2" stroke-linecap="round" stroke-linejoin="round"/>
<path d="M9.53333 5.26667V1" stroke="black" stroke-width="2" stroke-linecap="round" stroke-linejoin="round"/>
</svg>
