<svg width="119" height="31" viewBox="0 0 119 31" fill="none" xmlns="http://www.w3.org/2000/svg">
<path d="M0.191406 20.2734C0.191406 23.2031 1.14844 25.6445 3.0625 27.6172C4.97656 29.5898 7.37891 30.5664 10.2305 30.5664C11.5781 30.5664 12.8281 30.3516 13.9805 29.9023C15.1328 29.4727 16.2461 28.7695 17.3203 27.832C17.75 27.4609 18.1211 27.0312 18.4141 26.543C18.6875 26.0742 18.8438 25.6641 18.8438 25.3125C18.8438 25.0391 18.7461 24.8047 18.5898 24.6484C18.4336 24.4922 18.1992 24.3945 17.9258 24.3945C17.4961 24.3945 16.9297 24.6875 16.2266 25.2539C15.875 25.5273 15.6211 25.7227 15.4453 25.8398C14.918 26.1914 14.3516 26.4648 13.7461 26.6406C13.1406 26.8359 12.4961 26.9141 11.832 26.9141C9.87891 26.9141 8.27734 26.1523 7.02734 24.6289C5.77734 23.1055 5.15234 21.1328 5.15234 18.7109C5.15234 16.6211 5.58203 15 6.46094 13.8281C7.33984 12.6562 8.57031 12.0703 10.1523 12.0703C10.9727 12.0703 11.6562 12.2656 12.1836 12.6562C12.6914 13.0469 13.1797 13.7109 13.6094 14.6875C14.0781 15.8008 14.5078 16.5234 14.9375 16.8359C15.3477 17.168 15.8945 17.3242 16.5977 17.3242C17.2617 17.3242 17.8281 17.1289 18.2578 16.7383C18.6875 16.3477 18.9219 15.8203 18.9219 15.1953C18.9219 13.6328 18.1211 12.2852 16.5586 11.1133C14.9961 9.94141 13.1016 9.35547 10.875 9.35547C7.82812 9.35547 5.26953 10.3906 3.23828 12.4609C1.20703 14.5312 0.191406 17.1484 0.191406 20.2734ZM25.2266 18.2422C25.2266 16.4258 25.6367 14.9609 26.457 13.8672C27.2773 12.7734 28.3516 12.207 29.6992 12.207C31.3008 12.207 32.6875 13.125 33.8398 14.9219C34.9922 16.7188 35.5781 18.9453 35.5781 21.6016C35.5781 23.4375 35.1484 24.9219 34.3281 26.0352C33.5078 27.168 32.4336 27.7148 31.1055 27.7148C29.4648 27.7148 28.0586 26.8164 26.9258 25C25.793 23.2031 25.2266 20.9375 25.2266 18.2422ZM30.2266 30.5664C33.1953 30.5664 35.6758 29.5117 37.6875 27.4023C39.6797 25.293 40.6953 22.6758 40.6953 19.5117C40.6953 16.543 39.7578 14.1211 37.8828 12.207C36.0078 10.3125 33.625 9.35547 30.6953 9.35547C27.6484 9.35547 25.1094 10.3711 23.0781 12.4023C21.0469 14.4336 20.0508 16.9922 20.0508 20.0391C20.0508 23.0859 21.0078 25.5859 22.9414 27.5781C24.8555 29.5703 27.2969 30.5664 30.2266 30.5664ZM44.2266 14.4336C44.2266 15.4688 44.2266 16.7578 44.2461 18.3203C44.2461 19.8828 44.2656 20.9375 44.2656 21.4844C44.2656 23.3398 44.207 24.6875 44.1094 25.5078C44.0117 26.3281 43.8555 26.8555 43.6211 27.0703C43.4844 27.207 43.1328 27.4023 42.5859 27.6367C42.0195 27.8906 41.7461 28.2227 41.7461 28.6328C41.7461 29.2383 42.0586 29.6484 42.7227 29.8633C43.3867 30.0977 44.7539 30.1953 46.8242 30.1953C48.582 30.1953 49.8125 30.0977 50.4961 29.8828C51.1602 29.668 51.5117 29.2969 51.5117 28.7695C51.5117 28.2617 51.1797 27.8711 50.5547 27.6172C49.9297 27.3828 49.5391 27.1875 49.4219 27.0312C49.1875 26.7773 49.0312 26.1523 48.9531 25.1562C48.875 24.1602 48.8359 21.8555 48.8359 18.2422C48.8359 13.3203 48.9141 8.4375 49.0703 3.59375C49.0898 2.73438 49.1094 2.22656 49.1094 2.03125C49.1094 1.40625 49.0117 0.957031 48.8555 0.703125C48.6797 0.449219 48.3867 0.3125 47.9961 0.3125C47.4492 0.3125 46.7461 0.410156 45.8672 0.605469C44.9883 0.800781 44.0898 1.05469 43.1523 1.36719C42.1758 1.69922 41.5703 1.97266 41.2969 2.20703C41.0234 2.44141 40.9062 2.71484 40.9062 3.04688C40.9062 3.53516 41.3359 3.88672 42.1953 4.12109C42.7227 4.27734 43.1328 4.41406 43.4453 4.57031C43.7188 4.72656 43.9336 5.3125 44.0508 6.28906C44.168 7.28516 44.2266 9.47266 44.2266 12.8711V14.4336ZM59.5156 19.6875H69.2812C70.2969 19.6875 70.9219 19.5703 71.1758 19.2969C71.4102 19.0234 71.5469 18.4766 71.5469 17.6367C71.5469 15.0977 70.7656 13.0859 69.2422 11.6016C67.7188 10.1172 65.6484 9.35547 63.0312 9.35547C59.9258 9.35547 57.3867 10.3906 55.3945 12.4414C53.4023 14.4922 52.4258 17.1094 52.4258 20.2734C52.4258 23.2031 53.3828 25.6445 55.3164 27.6172C57.25 29.5898 59.6719 30.5664 62.5625 30.5664C63.8516 30.5664 65.043 30.3711 66.1367 29.9414C67.2305 29.5117 68.3633 28.8086 69.5547 27.832C70.1211 27.3828 70.5703 26.9141 70.9219 26.4453C71.2539 25.9766 71.4297 25.5664 71.4297 25.2344C71.4297 24.9609 71.332 24.7266 71.1367 24.5312C70.9414 24.3359 70.6875 24.2383 70.3945 24.2383C70.0039 24.2383 69.4766 24.5312 68.8125 25.0781C68.5 25.332 68.2461 25.5273 68.0703 25.6445C67.4062 26.1133 66.7422 26.4453 66.0586 26.6602C65.3555 26.8945 64.6523 26.9922 63.9102 26.9922C62.1719 26.9922 60.707 26.3867 59.4961 25.1758C58.2852 23.9648 57.6797 22.5 57.6797 20.8008C57.6797 20.293 57.7383 19.9805 57.8945 19.8633C58.0312 19.7461 58.4805 19.6875 59.2422 19.6875H59.5156ZM59.1055 17.3633C58.5977 17.3633 58.2656 17.3242 58.1094 17.207C57.9531 17.1094 57.875 16.9141 57.875 16.6016C57.875 15.293 58.2852 14.1992 59.1445 13.3008C59.9844 12.4023 61.0586 11.9531 62.3477 11.9531C63.6758 11.9531 64.7891 12.4023 65.668 13.3008C66.5469 14.1992 66.9961 15.293 66.9961 16.6016C66.9961 16.9141 66.8984 17.1094 66.7422 17.207C66.5664 17.3242 66.2148 17.3633 65.707 17.3633H59.1055ZM84.3164 9.92188H79.7656V6.11328C79.7656 5.91797 79.6875 5.74219 79.5312 5.625C79.375 5.50781 79.1602 5.44922 78.8867 5.44922C78.3594 5.44922 77.4023 6.07422 75.9961 7.30469C75.6445 7.61719 75.3906 7.83203 75.2148 7.98828C75 8.18359 74.7266 8.41797 74.375 8.71094C72.9492 9.92188 72.2461 10.7617 72.2461 11.1914V11.6797C72.2461 11.9336 72.2852 12.1094 72.4023 12.207C72.5195 12.3242 72.7148 12.3633 73.0078 12.3633H74.8828V23.2812C74.8828 25.3125 74.9805 26.7188 75.1758 27.4609C75.3711 28.2031 75.7031 28.8086 76.1914 29.2383C76.6602 29.6875 77.2461 30.0195 77.9102 30.2344C78.5742 30.4688 79.3359 30.5664 80.1953 30.5664C81.6406 30.5664 82.9492 30.2344 84.1016 29.5312C85.2539 28.8281 85.8398 28.1055 85.8398 27.3633C85.8398 27.0898 85.7422 26.8555 85.5469 26.6797C85.3516 26.5039 85.0977 26.4062 84.8047 26.4062C84.5312 26.4062 84.0625 26.5234 83.3984 26.7383C82.7344 26.9727 82.1875 27.0703 81.7578 27.0703C80.957 27.0703 80.4102 26.8555 80.1172 26.4062C79.8242 25.9766 79.6875 24.8828 79.6875 23.125V13.0078C79.6875 12.8125 79.7266 12.6562 79.8047 12.5391C79.8828 12.4219 79.9805 12.3633 80.1172 12.3633H84.3164C84.6289 12.3633 84.8438 12.2852 84.9805 12.1289C85.1172 11.9727 85.1953 11.7188 85.1953 11.3672V10.8789C85.1953 10.5078 85.1172 10.2539 85 10.1172C84.8828 10 84.6484 9.92188 84.3164 9.92188ZM97.7695 9.92188H93.2188V6.11328C93.2188 5.91797 93.1406 5.74219 92.9844 5.625C92.8281 5.50781 92.6133 5.44922 92.3398 5.44922C91.8125 5.44922 90.8555 6.07422 89.4492 7.30469C89.0977 7.61719 88.8438 7.83203 88.668 7.98828C88.4531 8.18359 88.1797 8.41797 87.8281 8.71094C86.4023 9.92188 85.6992 10.7617 85.6992 11.1914V11.6797C85.6992 11.9336 85.7383 12.1094 85.8555 12.207C85.9727 12.3242 86.168 12.3633 86.4609 12.3633H88.3359V23.2812C88.3359 25.3125 88.4336 26.7188 88.6289 27.4609C88.8242 28.2031 89.1562 28.8086 89.6445 29.2383C90.1133 29.6875 90.6992 30.0195 91.3633 30.2344C92.0273 30.4688 92.7891 30.5664 93.6484 30.5664C95.0938 30.5664 96.4023 30.2344 97.5547 29.5312C98.707 28.8281 99.293 28.1055 99.293 27.3633C99.293 27.0898 99.1953 26.8555 99 26.6797C98.8047 26.5039 98.5508 26.4062 98.2578 26.4062C97.9844 26.4062 97.5156 26.5234 96.8516 26.7383C96.1875 26.9727 95.6406 27.0703 95.2109 27.0703C94.4102 27.0703 93.8633 26.8555 93.5703 26.4062C93.2773 25.9766 93.1406 24.8828 93.1406 23.125V13.0078C93.1406 12.8125 93.1797 12.6562 93.2578 12.5391C93.3359 12.4219 93.4336 12.3633 93.5703 12.3633H97.7695C98.082 12.3633 98.2969 12.2852 98.4336 12.1289C98.5703 11.9727 98.6484 11.7188 98.6484 11.3672V10.8789C98.6484 10.5078 98.5703 10.2539 98.4531 10.1172C98.3359 10 98.1016 9.92188 97.7695 9.92188ZM106.906 19.6875H116.672C117.688 19.6875 118.312 19.5703 118.566 19.2969C118.801 19.0234 118.938 18.4766 118.938 17.6367C118.938 15.0977 118.156 13.0859 116.633 11.6016C115.109 10.1172 113.039 9.35547 110.422 9.35547C107.316 9.35547 104.777 10.3906 102.785 12.4414C100.793 14.4922 99.8164 17.1094 99.8164 20.2734C99.8164 23.2031 100.773 25.6445 102.707 27.6172C104.641 29.5898 107.062 30.5664 109.953 30.5664C111.242 30.5664 112.434 30.3711 113.527 29.9414C114.621 29.5117 115.754 28.8086 116.945 27.832C117.512 27.3828 117.961 26.9141 118.312 26.4453C118.645 25.9766 118.82 25.5664 118.82 25.2344C118.82 24.9609 118.723 24.7266 118.527 24.5312C118.332 24.3359 118.078 24.2383 117.785 24.2383C117.395 24.2383 116.867 24.5312 116.203 25.0781C115.891 25.332 115.637 25.5273 115.461 25.6445C114.797 26.1133 114.133 26.4453 113.449 26.6602C112.746 26.8945 112.043 26.9922 111.301 26.9922C109.562 26.9922 108.098 26.3867 106.887 25.1758C105.676 23.9648 105.07 22.5 105.07 20.8008C105.07 20.293 105.129 19.9805 105.285 19.8633C105.422 19.7461 105.871 19.6875 106.633 19.6875H106.906ZM106.496 17.3633C105.988 17.3633 105.656 17.3242 105.5 17.207C105.344 17.1094 105.266 16.9141 105.266 16.6016C105.266 15.293 105.676 14.1992 106.535 13.3008C107.375 12.4023 108.449 11.9531 109.738 11.9531C111.066 11.9531 112.18 12.4023 113.059 13.3008C113.938 14.1992 114.387 15.293 114.387 16.6016C114.387 16.9141 114.289 17.1094 114.133 17.207C113.957 17.3242 113.605 17.3633 113.098 17.3633H106.496Z" fill="#97AEBB"/>
</svg>
