<svg width="119" height="31" viewBox="0 0 119 31" fill="none" xmlns="http://www.w3.org/2000/svg">
<path d="M0.191406 19.9609C0.191406 22.8906 1.14844 25.332 3.0625 27.3047C4.97656 29.2773 7.37891 30.2539 10.2305 30.2539C11.5781 30.2539 12.8281 30.0391 13.9805 29.5898C15.1328 29.1602 16.2461 28.457 17.3203 27.5195C17.75 27.1484 18.1211 26.7188 18.4141 26.2305C18.6875 25.7617 18.8438 25.3516 18.8438 25C18.8438 24.7266 18.7461 24.4922 18.5898 24.3359C18.4336 24.1797 18.1992 24.082 17.9258 24.082C17.4961 24.082 16.9297 24.375 16.2266 24.9414C15.875 25.2148 15.6211 25.4102 15.4453 25.5273C14.918 25.8789 14.3516 26.1523 13.7461 26.3281C13.1406 26.5234 12.4961 26.6016 11.832 26.6016C9.87891 26.6016 8.27734 25.8398 7.02734 24.3164C5.77734 22.793 5.15234 20.8203 5.15234 18.3984C5.15234 16.3086 5.58203 14.6875 6.46094 13.5156C7.33984 12.3438 8.57031 11.7578 10.1523 11.7578C10.9727 11.7578 11.6562 11.9531 12.1836 12.3438C12.6914 12.7344 13.1797 13.3984 13.6094 14.375C14.0781 15.4883 14.5078 16.2109 14.9375 16.5234C15.3477 16.8555 15.8945 17.0117 16.5977 17.0117C17.2617 17.0117 17.8281 16.8164 18.2578 16.4258C18.6875 16.0352 18.9219 15.5078 18.9219 14.8828C18.9219 13.3203 18.1211 11.9727 16.5586 10.8008C14.9961 9.62891 13.1016 9.04297 10.875 9.04297C7.82812 9.04297 5.26953 10.0781 3.23828 12.1484C1.20703 14.2188 0.191406 16.8359 0.191406 19.9609Z" fill="black"/>
<path d="M25.2266 17.9297C25.2266 16.1133 25.6367 14.6484 26.457 13.5547C27.2773 12.4609 28.3516 11.8945 29.6992 11.8945C31.3008 11.8945 32.6875 12.8125 33.8398 14.6094C34.9922 16.4062 35.5781 18.6328 35.5781 21.2891C35.5781 23.125 35.1484 24.6094 34.3281 25.7227C33.5078 26.8555 32.4336 27.4023 31.1055 27.4023C29.4648 27.4023 28.0586 26.5039 26.9258 24.6875C25.793 22.8906 25.2266 20.625 25.2266 17.9297ZM30.2266 30.2539C33.1953 30.2539 35.6758 29.1992 37.6875 27.0898C39.6797 24.9805 40.6953 22.3633 40.6953 19.1992C40.6953 16.2305 39.7578 13.8086 37.8828 11.8945C36.0078 10 33.625 9.04297 30.6953 9.04297C27.6484 9.04297 25.1094 10.0586 23.0781 12.0898C21.0469 14.1211 20.0508 16.6797 20.0508 19.7266C20.0508 22.7734 21.0078 25.2734 22.9414 27.2656C24.8555 29.2578 27.2969 30.2539 30.2266 30.2539Z" fill="black"/>
<path d="M44.2266 14.1211C44.2266 15.1562 44.2266 16.4453 44.2461 18.0078C44.2461 19.5703 44.2656 20.625 44.2656 21.1719C44.2656 23.0273 44.207 24.375 44.1094 25.1953C44.0117 26.0156 43.8555 26.543 43.6211 26.7578C43.4844 26.8945 43.1328 27.0898 42.5859 27.3242C42.0195 27.5781 41.7461 27.9102 41.7461 28.3203C41.7461 28.9258 42.0586 29.3359 42.7227 29.5508C43.3867 29.7852 44.7539 29.8828 46.8242 29.8828C48.582 29.8828 49.8125 29.7852 50.4961 29.5703C51.1602 29.3555 51.5117 28.9844 51.5117 28.457C51.5117 27.9492 51.1797 27.5586 50.5547 27.3047C49.9297 27.0703 49.5391 26.875 49.4219 26.7188C49.1875 26.4648 49.0312 25.8398 48.9531 24.8438C48.875 23.8477 48.8359 21.543 48.8359 17.9297C48.8359 13.0078 48.9141 8.125 49.0703 3.28125C49.0898 2.42188 49.1094 1.91406 49.1094 1.71875C49.1094 1.09375 49.0117 0.644531 48.8555 0.390625C48.6797 0.136719 48.3867 0 47.9961 0C47.4492 0 46.7461 0.0976562 45.8672 0.292969C44.9883 0.488281 44.0898 0.742188 43.1523 1.05469C42.1758 1.38672 41.5703 1.66016 41.2969 1.89453C41.0234 2.12891 40.9062 2.40234 40.9062 2.73438C40.9062 3.22266 41.3359 3.57422 42.1953 3.80859C42.7227 3.96484 43.1328 4.10156 43.4453 4.25781C43.7188 4.41406 43.9336 5 44.0508 5.97656C44.168 6.97266 44.2266 9.16016 44.2266 12.5586V14.1211Z" fill="black"/>
<path d="M59.5156 19.375H69.2812C70.2969 19.375 70.9219 19.2578 71.1758 18.9844C71.4102 18.7109 71.5469 18.1641 71.5469 17.3242C71.5469 14.7852 70.7656 12.7734 69.2422 11.2891C67.7188 9.80469 65.6484 9.04297 63.0312 9.04297C59.9258 9.04297 57.3867 10.0781 55.3945 12.1289C53.4023 14.1797 52.4258 16.7969 52.4258 19.9609C52.4258 22.8906 53.3828 25.332 55.3164 27.3047C57.25 29.2773 59.6719 30.2539 62.5625 30.2539C63.8516 30.2539 65.043 30.0586 66.1367 29.6289C67.2305 29.1992 68.3633 28.4961 69.5547 27.5195C70.1211 27.0703 70.5703 26.6016 70.9219 26.1328C71.2539 25.6641 71.4297 25.2539 71.4297 24.9219C71.4297 24.6484 71.332 24.4141 71.1367 24.2188C70.9414 24.0234 70.6875 23.9258 70.3945 23.9258C70.0039 23.9258 69.4766 24.2188 68.8125 24.7656C68.5 25.0195 68.2461 25.2148 68.0703 25.332C67.4062 25.8008 66.7422 26.1328 66.0586 26.3477C65.3555 26.582 64.6523 26.6797 63.9102 26.6797C62.1719 26.6797 60.707 26.0742 59.4961 24.8633C58.2852 23.6523 57.6797 22.1875 57.6797 20.4883C57.6797 19.9805 57.7383 19.668 57.8945 19.5508C58.0312 19.4336 58.4805 19.375 59.2422 19.375H59.5156ZM59.1055 17.0508C58.5977 17.0508 58.2656 17.0117 58.1094 16.8945C57.9531 16.7969 57.875 16.6016 57.875 16.2891C57.875 14.9805 58.2852 13.8867 59.1445 12.9883C59.9844 12.0898 61.0586 11.6406 62.3477 11.6406C63.6758 11.6406 64.7891 12.0898 65.668 12.9883C66.5469 13.8867 66.9961 14.9805 66.9961 16.2891C66.9961 16.6016 66.8984 16.7969 66.7422 16.8945C66.5664 17.0117 66.2148 17.0508 65.707 17.0508H59.1055Z" fill="black"/>
<path d="M84.3164 9.60938H79.7656V5.80078C79.7656 5.60547 79.6875 5.42969 79.5312 5.3125C79.375 5.19531 79.1602 5.13672 78.8867 5.13672C78.3594 5.13672 77.4023 5.76172 75.9961 6.99219C75.6445 7.30469 75.3906 7.51953 75.2148 7.67578C75 7.87109 74.7266 8.10547 74.375 8.39844C72.9492 9.60938 72.2461 10.4492 72.2461 10.8789V11.3672C72.2461 11.6211 72.2852 11.7969 72.4023 11.8945C72.5195 12.0117 72.7148 12.0508 73.0078 12.0508H74.8828V22.9688C74.8828 25 74.9805 26.4062 75.1758 27.1484C75.3711 27.8906 75.7031 28.4961 76.1914 28.9258C76.6602 29.375 77.2461 29.707 77.9102 29.9219C78.5742 30.1562 79.3359 30.2539 80.1953 30.2539C81.6406 30.2539 82.9492 29.9219 84.1016 29.2188C85.2539 28.5156 85.8398 27.793 85.8398 27.0508C85.8398 26.7773 85.7422 26.543 85.5469 26.3672C85.3516 26.1914 85.0977 26.0938 84.8047 26.0938C84.5312 26.0938 84.0625 26.2109 83.3984 26.4258C82.7344 26.6602 82.1875 26.7578 81.7578 26.7578C80.957 26.7578 80.4102 26.543 80.1172 26.0938C79.8242 25.6641 79.6875 24.5703 79.6875 22.8125V12.6953C79.6875 12.5 79.7266 12.3438 79.8047 12.2266C79.8828 12.1094 79.9805 12.0508 80.1172 12.0508H84.3164C84.6289 12.0508 84.8438 11.9727 84.9805 11.8164C85.1172 11.6602 85.1953 11.4062 85.1953 11.0547V10.5664C85.1953 10.1953 85.1172 9.94141 85 9.80469C84.8828 9.6875 84.6484 9.60938 84.3164 9.60938Z" fill="black"/>
<path d="M97.7695 9.60938H93.2188V5.80078C93.2188 5.60547 93.1406 5.42969 92.9844 5.3125C92.8281 5.19531 92.6133 5.13672 92.3398 5.13672C91.8125 5.13672 90.8555 5.76172 89.4492 6.99219C89.0977 7.30469 88.8438 7.51953 88.668 7.67578C88.4531 7.87109 88.1797 8.10547 87.8281 8.39844C86.4023 9.60938 85.6992 10.4492 85.6992 10.8789V11.3672C85.6992 11.6211 85.7383 11.7969 85.8555 11.8945C85.9727 12.0117 86.168 12.0508 86.4609 12.0508H88.3359V22.9688C88.3359 25 88.4336 26.4062 88.6289 27.1484C88.8242 27.8906 89.1562 28.4961 89.6445 28.9258C90.1133 29.375 90.6992 29.707 91.3633 29.9219C92.0273 30.1562 92.7891 30.2539 93.6484 30.2539C95.0938 30.2539 96.4023 29.9219 97.5547 29.2188C98.707 28.5156 99.293 27.793 99.293 27.0508C99.293 26.7773 99.1953 26.543 99 26.3672C98.8047 26.1914 98.5508 26.0938 98.2578 26.0938C97.9844 26.0938 97.5156 26.2109 96.8516 26.4258C96.1875 26.6602 95.6406 26.7578 95.2109 26.7578C94.4102 26.7578 93.8633 26.543 93.5703 26.0938C93.2773 25.6641 93.1406 24.5703 93.1406 22.8125V12.6953C93.1406 12.5 93.1797 12.3438 93.2578 12.2266C93.3359 12.1094 93.4336 12.0508 93.5703 12.0508H97.7695C98.082 12.0508 98.2969 11.9727 98.4336 11.8164C98.5703 11.6602 98.6484 11.4062 98.6484 11.0547V10.5664C98.6484 10.1953 98.5703 9.94141 98.4531 9.80469C98.3359 9.6875 98.1016 9.60938 97.7695 9.60938Z" fill="black"/>
<path d="M106.906 19.375H116.672C117.688 19.375 118.312 19.2578 118.566 18.9844C118.801 18.7109 118.938 18.1641 118.938 17.3242C118.938 14.7852 118.156 12.7734 116.633 11.2891C115.109 9.80469 113.039 9.04297 110.422 9.04297C107.316 9.04297 104.777 10.0781 102.785 12.1289C100.793 14.1797 99.8164 16.7969 99.8164 19.9609C99.8164 22.8906 100.773 25.332 102.707 27.3047C104.641 29.2773 107.062 30.2539 109.953 30.2539C111.242 30.2539 112.434 30.0586 113.527 29.6289C114.621 29.1992 115.754 28.4961 116.945 27.5195C117.512 27.0703 117.961 26.6016 118.312 26.1328C118.645 25.6641 118.82 25.2539 118.82 24.9219C118.82 24.6484 118.723 24.4141 118.527 24.2188C118.332 24.0234 118.078 23.9258 117.785 23.9258C117.395 23.9258 116.867 24.2188 116.203 24.7656C115.891 25.0195 115.637 25.2148 115.461 25.332C114.797 25.8008 114.133 26.1328 113.449 26.3477C112.746 26.582 112.043 26.6797 111.301 26.6797C109.562 26.6797 108.098 26.0742 106.887 24.8633C105.676 23.6523 105.07 22.1875 105.07 20.4883C105.07 19.9805 105.129 19.668 105.285 19.5508C105.422 19.4336 105.871 19.375 106.633 19.375H106.906ZM106.496 17.0508C105.988 17.0508 105.656 17.0117 105.5 16.8945C105.344 16.7969 105.266 16.6016 105.266 16.2891C105.266 14.9805 105.676 13.8867 106.535 12.9883C107.375 12.0898 108.449 11.6406 109.738 11.6406C111.066 11.6406 112.18 12.0898 113.059 12.9883C113.938 13.8867 114.387 14.9805 114.387 16.2891C114.387 16.6016 114.289 16.7969 114.133 16.8945C113.957 17.0117 113.605 17.0508 113.098 17.0508H106.496Z" fill="black"/>
</svg>
