<svg width="66" height="63" viewBox="0 0 66 63" fill="none" xmlns="http://www.w3.org/2000/svg">
<path d="M41.6593 25.5038V37.7571C41.6593 38.3306 41.4315 38.8806 41.026 39.2861C40.6205 39.6916 40.0705 39.9195 39.497 39.9195H26.5171C25.9436 39.9195 25.3936 39.6916 24.9881 39.2861C24.5826 38.8806 24.3547 38.3306 24.3547 37.7571V25.5038" stroke="black" stroke-width="2" stroke-linecap="round" stroke-linejoin="round"/>
<path d="M20.0358 29.1078L33.0099 18.296L45.9841 29.1078" stroke="black" stroke-width="2" stroke-linecap="round" stroke-linejoin="round"/>
<path d="M33.0128 61.5431C20.6586 50.8236 -5.05322 24.7543 2.29878 10.0416C3.45784 7.72342 5.15123 5.71384 7.23937 4.17852C9.32752 2.6432 11.7506 1.62611 14.309 1.21107C16.8674 0.796033 19.4878 0.994929 21.9542 1.79137C24.4206 2.58781 26.6625 3.95898 28.495 5.79189L33.0099 10.304L37.5249 5.79189C39.3572 3.96076 41.5982 2.5911 44.0635 1.7957C46.5287 1.0003 49.1477 0.801932 51.7046 1.21692C54.2616 1.63191 56.6834 2.64839 58.7705 4.18264C60.8577 5.71689 62.5505 7.72502 63.7096 10.0416C71.027 24.662 45.3844 50.9476 33.0128 61.5431Z" stroke="black" stroke-width="2" stroke-linecap="round" stroke-linejoin="round"/>
</svg>
