<svg width="66" height="66" viewBox="0 0 66 66" fill="none" xmlns="http://www.w3.org/2000/svg">
<path d="M50.3716 26.5991L37.9043 13.5942C36.8116 12.4978 36.0905 11.0863 35.8425 9.55847C35.5945 8.03063 35.8321 6.46347 36.5219 5.07781C37.0445 4.03236 37.8081 3.12608 38.7497 2.43365C39.6913 1.74123 40.784 1.28249 41.9377 1.09526C43.0914 0.90802 44.273 0.997643 45.3853 1.35674C46.4976 1.71583 47.5086 2.33412 48.335 3.16063L50.3716 5.19728L52.4083 3.16063C53.2347 2.33412 54.2457 1.71583 55.358 1.35674C56.4702 0.997643 57.6519 0.90802 58.8056 1.09526C59.9593 1.28249 61.052 1.74123 61.9936 2.43365C62.9352 3.12608 63.6988 4.03236 64.2214 5.07781C64.9137 6.46288 65.1528 8.03065 64.9047 9.55911C64.6566 11.0876 63.9339 12.4992 62.839 13.5942L50.3716 26.5991Z" stroke="black" stroke-width="2" stroke-linecap="round" stroke-linejoin="round"/>
<path d="M20.2002 27.6658C20.4831 27.6658 20.7544 27.7782 20.9545 27.9782C21.1545 28.1782 21.2669 28.4496 21.2669 28.7325" stroke="black" stroke-width="2" stroke-linecap="round" stroke-linejoin="round"/>
<path d="M19.1335 28.7325C19.1335 28.4496 19.2459 28.1782 19.446 27.9782C19.646 27.7782 19.9173 27.6658 20.2002 27.6658" stroke="black" stroke-width="2" stroke-linecap="round" stroke-linejoin="round"/>
<path d="M20.2002 29.7991C19.9173 29.7991 19.646 29.6867 19.446 29.4867C19.2459 29.2866 19.1335 29.0153 19.1335 28.7324" stroke="black" stroke-width="2" stroke-linecap="round" stroke-linejoin="round"/>
<path d="M21.2669 28.7324C21.2669 29.0153 21.1545 29.2866 20.9545 29.4867C20.7544 29.6867 20.4831 29.7991 20.2002 29.7991" stroke="black" stroke-width="2" stroke-linecap="round" stroke-linejoin="round"/>
<path d="M15.9648 56.3354L13.8002 64.9997" stroke="black" stroke-width="2" stroke-linecap="round" stroke-linejoin="round"/>
<path d="M45.7721 56.3467L47.9339 64.9996" stroke="black" stroke-width="2" stroke-linecap="round" stroke-linejoin="round"/>
<path d="M24.521 14.5557L18.9316 9.89927C18.6377 9.65343 18.283 9.49138 17.9048 9.43018C17.5266 9.36899 17.1389 9.41092 16.7825 9.55155C16.4261 9.69219 16.1142 9.92632 15.8797 10.2293C15.6452 10.5323 15.4967 10.8929 15.45 11.2732L14.4515 19.269C10.5839 22.1906 7.72173 26.2438 6.26229 30.8659H1V47.9328H8.08275C10.4067 51.893 13.7408 55.1649 17.744 57.4139C21.7472 59.6629 26.2759 60.8083 30.867 60.733C45.0069 60.733 56.4673 50.2255 56.4673 37.266C56.4682 36.5536 56.433 35.8415 56.3621 35.1326" stroke="black" stroke-width="2" stroke-linecap="round" stroke-linejoin="round"/>
</svg>
